<svg width="20" height="20" viewBox="0 0 20 20" fill="none" xmlns="http://www.w3.org/2000/svg">
<path d="M10 20C8.02219 20 6.08879 19.4135 4.4443 18.3147C2.79981 17.2159 1.51809 15.6541 0.761209 13.8268C0.00433286 11.9996 -0.1937 9.98891 0.192152 8.0491C0.578004 6.10929 1.53041 4.32746 2.92894 2.92894C4.32746 1.53041 6.10929 0.578004 8.0491 0.192152C9.98891 -0.1937 11.9996 0.00433286 13.8268 0.761209C15.6541 1.51809 17.2159 2.79981 18.3147 4.4443C19.4135 6.08879 20 8.02219 20 10C19.9941 12.6504 18.9387 15.1905 17.0646 17.0646C15.1905 18.9387 12.6504 19.9941 10 20ZM10 1.59112C8.33961 1.59287 6.71703 2.08693 5.33742 3.01081C3.9578 3.93468 2.88311 5.2469 2.24923 6.78153C1.61535 8.31616 1.45075 10.0043 1.77623 11.6325C2.10172 13.2606 2.90268 14.7557 4.07784 15.9287C5.253 17.1017 6.74958 17.8999 8.37836 18.2224C10.0071 18.5448 11.695 18.3771 13.2284 17.7404C14.7619 17.1037 16.0721 16.0265 16.9934 14.6452C17.9147 13.2639 18.4058 11.6404 18.4044 9.98C18.3997 7.75388 17.5123 5.62052 15.9367 4.04787C14.3611 2.47522 12.2261 1.5917 10 1.59112Z" fill="#090C9B"/>
<path d="M13.1994 6.79543L8.53277 11.4621L6.82166 9.75098C6.74852 9.66901 6.65941 9.60284 6.55978 9.55653C6.46016 9.51022 6.35212 9.48475 6.2423 9.48167C6.13248 9.4786 6.02319 9.498 5.92114 9.53867C5.81908 9.57934 5.72641 9.64042 5.6488 9.71818C5.57119 9.79594 5.51028 9.88874 5.46981 9.99087C5.42934 10.093 5.41016 10.2023 5.41345 10.3121C5.41673 10.422 5.44241 10.5299 5.48892 10.6295C5.53542 10.729 5.60177 10.818 5.68388 10.891L7.95722 13.1799C8.10875 13.3304 8.31365 13.4148 8.52722 13.4148C8.74078 13.4148 8.94568 13.3304 9.09722 13.1799L14.3305 7.93543C14.4176 7.86423 14.4888 7.77563 14.5395 7.6753C14.5903 7.57498 14.6195 7.46514 14.6254 7.35285C14.6312 7.24056 14.6135 7.12829 14.5734 7.02325C14.5332 6.91821 14.4716 6.82272 14.3924 6.7429C14.3132 6.66308 14.2182 6.6007 14.1135 6.55976C14.0088 6.51882 13.8966 6.50023 13.7843 6.50518C13.672 6.51012 13.5619 6.5385 13.4612 6.58848C13.3605 6.63847 13.2713 6.70896 13.1994 6.79543Z" fill="#090C9B"/>
</svg>
